<?xml version="1.0" standalone="no"?>
<!DOCTYPE svg PUBLIC "-//W3C//DTD SVG 20010904//EN"
 "http://www.w3.org/TR/2001/REC-SVG-20010904/DTD/svg10.dtd">
<svg version="1.0" xmlns="http://www.w3.org/2000/svg"
 width="100.000000pt" height="100.000000pt" viewBox="0 0 100.000000 100.000000"
 preserveAspectRatio="xMidYMid meet">
<metadata>
Created by potrace 1.11, written by Peter Selinger 2001-2013
</metadata>
<g transform="translate(0.000000,100.000000) scale(0.100000,-0.100000)"
fill="#000000" stroke="none">
<path d="M0 500 l0 -500 500 0 500 0 0 500 0 500 -500 0 -500 0 0 -500z m538
27 l403 -403 -28 -27 -29 -27 -404 405 -404 404 24 26 c13 14 26 25 29 25 3 0
187 -181 409 -403z m-40 -165 c-17 -19 -144 108 -134 134 6 15 18 6 76 -51 55
-55 67 -72 58 -83z m-108 23 c51 -51 62 -67 52 -77 -10 -10 -26 1 -78 54 -38
37 -64 71 -60 77 12 18 19 14 86 -54z m-52 -58 c51 -52 60 -66 49 -75 -10 -9
-27 3 -80 56 -62 63 -72 82 -43 82 7 0 40 -28 74 -63z m-8 -131 c-14 -14 -146
117 -135 134 5 8 30 -10 76 -56 46 -46 65 -72 59 -78z m-110 19 c51 -51 62
-67 52 -77 -10 -10 -26 1 -78 54 -38 37 -64 71 -60 77 12 18 19 14 86 -54z
m-2 -133 c-17 -19 -144 108 -134 134 6 15 18 6 76 -51 55 -55 67 -72 58 -83z"/>
</g>
</svg>
