<?xml version="1.0" encoding="utf-8"?>
<!-- Generator: Adobe Illustrator 16.0.0, SVG Export Plug-In . SVG Version: 6.00 Build 0)  -->
<!DOCTYPE svg PUBLIC "-//W3C//DTD SVG 1.1//EN" "http://www.w3.org/Graphics/SVG/1.1/DTD/svg11.dtd">
<svg version="1.1" id="Layer_1" xmlns="http://www.w3.org/2000/svg" xmlns:xlink="http://www.w3.org/1999/xlink" x="0px" y="0px"
	 width="435.4px" height="23px" viewBox="0 0 435.4 23" style="enable-background:new 0 0 435.4 23;" xml:space="preserve">
<style type="text/css">
<![CDATA[
	.xwalk{fill:#FFFFFF;}
]]>
</style>
<g>
	<polygon class="xwalk" points="-0.2,23 35.6,0 51.8,0 19.3,23 	"/>
	<polygon class="xwalk" points="51.8,23 78.8,0 94.9,0 71.3,23 	"/>
	<polygon class="xwalk" points="103.8,23 121.9,0 138.1,0 123.3,23 	"/>
	<polygon class="xwalk" points="155.8,23 165,0 181.2,0 175.3,23 	"/>
	<polygon class="xwalk" points="207.8,23 208.1,0 224.3,0 227.4,23 	"/>
	<polygon class="xwalk" points="259.9,23 251.2,0 267.4,0 279.4,23 	"/>
	<polygon class="xwalk" points="311.9,23 294.4,0 310.5,0 331.4,23 	"/>
	<polygon class="xwalk" points="363.9,23 337.5,0 353.6,0 383.4,23 	"/>
	<polygon class="xwalk" points="415.9,23 380.6,0 396.8,0 435.4,23 	"/>
</g>
</svg>
