<?xml version="1.0" encoding="utf-8"?>
<!-- Generator: Adobe Illustrator 16.0.0, SVG Export Plug-In . SVG Version: 6.00 Build 0)  -->
<!DOCTYPE svg PUBLIC "-//W3C//DTD SVG 1.1//EN" "http://www.w3.org/Graphics/SVG/1.1/DTD/svg11.dtd">
<svg version="1.1" id="Layer_1" xmlns="http://www.w3.org/2000/svg" xmlns:xlink="http://www.w3.org/1999/xlink" x="0px" y="0px"
	 width="251px" height="126px" viewBox="0 0 251 126" style="enable-background:new 0 0 251 126;" xml:space="preserve">
<style type="text/css">
<![CDATA[
	.full-logo-0{fill:#E03237;}
	.full-logo-1{fill:#FFFFFF;}
]]>
</style>
<path class="full-logo-0" d="M128.6,71.5V14.8l6.3,0.1l27.6,39.8V14.9h8.1v56.6h-6.5L136.8,32v39.5H128.6z"/>
<path class="full-logo-0" d="M224.3,35.2c-2.3-9.1-11-12.4-18.2-12.4c-11.1,0-19.6,8.6-19.6,20.5c0,12,8.6,20.8,19.6,20.8
	c7,0,14.4-3.2,17.8-11.5h-20.9v-8.2h30.5c-0.4,4.8-0.8,7.9-1.5,9.8v-0.1C228,65,216.4,71.9,206.1,71.9c-15.8,0-27.8-12-27.8-28.6
	c0-16.7,12.2-28.7,27.8-28.7c10.8,0,23.9,5.6,26.9,20.6H224.3z"/>
<rect x="110" y="15" class="full-logo-1" width="8" height="57"/>
<g>
	<path class="full-logo-1" d="M112.3,101.5H110V85.7h9.4V88h-7.2v4.5h6.3v2.3h-6.3V101.5z"/>
	<path class="full-logo-1" d="M123.4,93.5h2.7c1.9,0,2.9-1.4,2.9-2.8c0-1.4-1-2.7-2.9-2.7h-3.5v13.5h-2.3V85.7h5.8c3.4,0,5.2,2.5,5.2,5
		c0,2.2-1.4,4.4-4.1,4.8l5,6h-3l-5.8-7V93.5z"/>
	<path class="full-logo-1" d="M141.7,96.9H136c-0.6,1.4-1.4,3.4-1.9,4.7h-2.5l6.4-16.1h1.7l6.4,16.1h-2.4L141.7,96.9z M136.9,94.7h3.9
		l-1.9-5.6L136.9,94.7z"/>
	<path class="full-logo-1" d="M149.2,101.5h-2.3V85.7h1.9l5.2,7.7l5.2-7.7h1.8v15.8h-2.3V90.4l-4.1,6.2h-1.3l-4.1-6.2V101.5z"/>
	<path class="full-logo-1" d="M165,99.2h7.4v2.3h-9.7V85.7h9.6V88H165v4.5h7.2v2.3H165V99.2z"/>
	<path class="full-logo-1" d="M182,94c-0.9,2.6-1.9,5.2-2.7,7.6h-1.6l-5.3-15.9h2.4l3.8,11.4l2.6-7.4h1.8l2.6,7.4c1.2-3.8,2.6-7.8,3.8-11.4
		h2.4l-5.3,15.9h-1.6L182,94z"/>
	<path class="full-logo-1" d="M193.9,87.9c1.4-1.5,3.5-2.4,5.7-2.4c2.2,0,4.3,0.9,5.7,2.4c1.4,1.5,2.4,3.5,2.4,5.7c0,2.2-0.9,4.3-2.4,5.7
		c-1.5,1.5-3.5,2.4-5.7,2.4c-2.2,0-4.3-0.9-5.7-2.4c-1.4-1.5-2.4-3.5-2.4-5.7C191.6,91.4,192.5,89.3,193.9,87.9z M203.7,89.5
		c-1.1-1.1-2.5-1.7-4.1-1.7s-3,0.7-4.1,1.7c-1,1-1.7,2.5-1.7,4.1s0.7,3.1,1.7,4.1c1,1.1,2.5,1.7,4.1,1.7s3-0.7,4.1-1.7
		c1-1,1.7-2.5,1.7-4.1C205.4,92,204.8,90.5,203.7,89.5z"/>
	<path class="full-logo-1" d="M212.3,93.5h2.7c1.9,0,2.9-1.4,2.9-2.8c0-1.4-1-2.7-2.9-2.7h-3.5v13.5h-2.3V85.7h5.8c3.4,0,5.2,2.5,5.2,5
		c0,2.2-1.4,4.4-4.1,4.8l5,6h-3l-5.8-7V93.5z"/>
	<path class="full-logo-1" d="M224,85.7v15.8h-2.3V85.7H224z M224.4,93l5.5-7.3h2.9l-6,7.9l6.7,8h-3l-6-7.3V93z"/>
</g>
<rect x="53.4" y="1.3" transform="matrix(0.7072 -0.707 0.707 0.7072 -24.5697 57.6484)" class="full-logo-1" width="7.9" height="114.3"/>
<rect x="55" y="49.4" transform="matrix(0.7071 0.7071 -0.7071 0.7071 54.8751 -30.6384)" class="full-logo-0" width="18.8" height="3"/>
<rect x="60.6" y="43.8" transform="matrix(0.7071 0.7071 -0.7071 0.7071 52.5614 -36.2291)" class="full-logo-0" width="18.8" height="3"/>
<rect x="66.2" y="38.3" transform="matrix(0.7071 0.7071 -0.7071 0.7071 50.2428 -41.8186)" class="full-logo-0" width="18.8" height="3"/>
<rect x="71.8" y="32.7" transform="matrix(0.7071 0.7071 -0.7071 0.7071 47.9253 -47.4086)" class="full-logo-0" width="18.8" height="3"/>
<rect x="77.4" y="27.1" transform="matrix(0.7071 0.7071 -0.7071 0.7071 45.6145 -53.0006)" class="full-logo-0" width="18.8" height="3"/>
<rect x="83" y="21.5" transform="matrix(0.7071 0.7071 -0.7071 0.7071 43.2976 -58.5903)" class="full-logo-0" width="18.8" height="3"/>
<rect x="12.4" y="92.1" transform="matrix(0.7071 0.7071 -0.7071 0.7071 72.5291 11.9862)" class="full-logo-1" width="18.8" height="3"/>
<rect x="18" y="86.5" transform="matrix(0.7071 0.7071 -0.7071 0.7071 70.2144 6.3967)" class="full-logo-1" width="18.8" height="3"/>
<rect x="23.6" y="80.9" transform="matrix(0.7071 0.7071 -0.7071 0.7071 67.9021 0.8079)" class="full-logo-1" width="18.8" height="3"/>
<rect x="29.2" y="75.3" transform="matrix(0.7071 0.7071 -0.7071 0.7071 65.5837 -4.7835)" class="full-logo-1" width="18.8" height="3"/>
<rect x="34.8" y="69.7" transform="matrix(0.7071 0.7071 -0.7071 0.7071 63.2678 -10.3738)" class="full-logo-1" width="18.8" height="3"/>
<rect x="40.4" y="64.1" transform="matrix(0.7071 0.7071 -0.7071 0.7071 60.9554 -15.9637)" class="full-logo-1" width="18.8" height="3"/>
</svg>
